<svg version="1.1" width="830" height="90" xmlns="http://www.w3.org/2000/svg" >
	<defs>
		<linearGradient id="Area">
			<stop offset="0%" stop-color="#f5f5f599" />
			<stop offset="4%" stop-color="#fefefe" stop-opacity="0.5" />
			<stop offset="96%" stop-color="#fefefe" stop-opacity="0.5" />
			<stop offset="100%" stop-color="#f5f5f595" />
		</linearGradient>
		<linearGradient id="rfrontAngle" x1="1" x2="0" y1="1" y2="0.25">
			<stop offset="0%" stop-color="#f3f3f3" />
			<stop offset="43.5%" stop-color="#fefefe" stop-opacity="0" />
		</linearGradient>
		<linearGradient id="rbackAngle" x1="1" x2="0" y1="1" y2="0.5">
			<stop offset="0%" stop-color="#fefefe" />
			<stop offset="30%" stop-color="dimgray" />
		</linearGradient>
	</defs>
	<path d="M 700 91 C 750 91, 800 91, 822 82 C 830 65, 830 32, 830 15 L 830 90 Z" stroke="none" fill="url(#rbackAngle)" />
	<path d="M0,0 830,0 830,90 0,90 Z" stroke="none" fill="url(#Area)" />
	<path d="M 700 91 C 750 91, 800 91, 822 82 C 830 65, 829.5 32, 829.5 15 L 829.5 32 Z" stroke="none" fill="url(#rfrontAngle)" />
	<path d="M 700 91 C 750 91, 800 91, 822 82 C 830 65, 829.5 32, 829.5 15 M829.5,15 829.5,0" stroke="#ffffff" fill="none" />
</svg>