<svg version="1.1" width="830" height="90" xmlns="http://www.w3.org/2000/svg" >
	<defs>
		<linearGradient id="Area">
			<stop offset="0%" stop-color="#f5f5f5" />
			<stop offset="5%" stop-color="#fefefe" />
			<stop offset="95%" stop-color="#fefefe" />
			<stop offset="100%" stop-color="#f5f5f5" />
		</linearGradient>
		<linearGradient id="frontAngle" x1="0" x2="1" y1="1.3" y2="0">
			<stop offset="0%" stop-color="lightgray" />
			<stop offset="55%" stop-color="#fefefe" stop-opacity="0" />
		</linearGradient>
		<linearGradient id="backAngle" x1="1" x2="0" y1="0" y2="1.3">
			<stop offset="0%" stop-color="black" />
			<stop offset="93%" stop-color="#fefefe" stop-opacity="0" />
		</linearGradient>
		<linearGradient id="rfrontAngle" x1="1" x2="0" y1="1.3" y2="0">
			<stop offset="0%" stop-color="lightgray" />
			<stop offset="55%" stop-color="#fefefe" stop-opacity="0" />
		</linearGradient>
		<linearGradient id="rbackAngle" x1="0" x2="1" y1="0" y2="1.3">
			<stop offset="0%" stop-color="black" />
			<stop offset="93%" stop-color="#fefefe" stop-opacity="0" />
		</linearGradient>
	</defs>
	<path d="M0,0 830,0 830,90 0,90 Z" stroke="none" fill="url(#Area)" />
	<path d="M -1 47 C 1 57, -1 67, 7 82 C 45 92, 110 89, 130 91 " stroke="white" fill="url(#frontAngle)" />
	<path d="M -1 47 C 1 57, -1 67, 7 82 C 45 92, 110 89, 130 91 L -1 91 Z" stroke="none" fill="url(#backAngle)" />
	<path d="M 831 47 C 829 57, 831 67, 823 82 C 785 92, 720 89, 700 91 " stroke="white" fill="url(#rfrontAngle)" />
	<path d="M 831 47 C 829 57, 831 67, 823 82 C 785 92, 720 89, 700 91 L 831 91 Z" stroke="none" fill="url(#rbackAngle)" />
</svg>