<svg version="1.1" width="100" height="100" xmlns="http://www.w3.org/2000/svg" >
		
	<path d="M 85 85 A 50 50 0 0 1 15 85 C 15 85, 13 83, 15 81 L 15 81, 85 81 C 85 81, 87 83, 85 85 Z" stroke="tan" fill="darkgrey" />
	<path d="M 24 80 C 24 80, 48 105, 76 80 C 76 80, 81 75, 76 74 L 76 74, 24 74 C 24 74, 19 75, 24 80 Z" stroke="purple" stroke-width="8" />
  <circle cx="50" cy="60" r="28" fill="darkgrey" stroke="tan" stroke-width="1" />
  <circle cx="38" cy="55" r="5" fill="white" />
  <ellipse cx="62" cy="55" rx="6" ry="4" fill="white" />
  <path d="M59,55 65,55 M35,55 41,55 M38,52 38,58" stroke="black" stroke-width="2" />
  <path d="M24,50 29,55 M71,55 76,50 M47,53 53,53" fill="none"  stroke="brown" stroke-width="2" />
	<path d="M 72 25 L 72 25, 67 14 C 67 14, 44 4, 21 24 L 21 24, 19 37 Z" fill="goldenrod" />
	<path d="M 72.4 26 L 72.4 26, 69.8 20 C 69.8 20, 43 14, 19.75 32 L 19.75 32, 19 37 Z" fill="green" />
	<path d="M 22 60 A 29 29 0 0 1 27 45 C 27 45, 41 34, 65 37 A 29 29 0 0 1 76 49 C 76 49, 117 28, 65 23 C 65 23, 42 22, 20 35 C 20 35, -17 59, 21 60 Z" fill="darkgoldenrod" />
	<path d="M 30 75 C 30 75, 48 112, 70 75" fill="darkgrey" stroke="grey" />
	<path d="M 35 76 C 35 76, 48 100, 65 76 C 65 76, 48 83, 35 76 Z" fill="greenyellow" />
	<path d="M47,45 35,42 M45,45 32,44 M53,45 65,42 M55,45 68,44 M24,53 14,65 M27,46 15,70 M29,44 18,73 M29,44 21,73 " stroke="greenyellow" stroke-width="2" />
  <circle cx="38" cy="55" r="9" fill="#50C878" fill-opacity="0.75" stroke="brown" stroke-width="2" />
  <circle cx="62" cy="55" r="9" fill="#50C878" fill-opacity="0.75" stroke="brown" stroke-width="2" />
	<path d="M50,80.1 50,85.7 M53,79.8 52.7,85.3 M47,80 47.2,85.5 M43.5,79.5 44.25,84.5 M40.5,78.8 41.5,83 M38,78 38.5,80 M56.5,79.2 55.5,84.5 M60,78.3 58,82.9" stroke="goldenrod" stroke-width="1" />
	<path d="M 35 76 C 35 76, 48 100, 65 76 C 65 76, 48 83, 35 76 Z" fill="none" stroke="red" stroke-width="1.5" />
	<path d="M73,45 87,65 M71,43 85,69 M70,41 82,71 M68,39 78,72 M50,76 29,69.5 M50,77 32,73 M50,76 31,67 M50,77 68,73 M50,76 71,69.5 M50,76 69,67 "  stroke="greenyellow" stroke-width="2" />
	<ellipse cx="50" cy="65.5" rx="7" ry="10" fill="Silver" />
</svg>
