<svg version="1.1" viewBox="0 0 144 480" xmlns="http://www.w3.org/2000/svg" >
	<path d="M0,23.5 144,23.5 M0,47.5 144,47.5 M0,71.5 144,71.5 M0,95.5 144,95.5 M0,119.5 144,119.5 M0,143.5 144,143.5 M0,167.5 144,167.5 M0,191.5 144,191.5 M0,215.5 144,215.5 M0,239.5 144,239.5 M0,263.5 144,263.5 M0,287.5 144,287.5 M0,311.5 144,311.5 M0,335.5 144,335.5 M0,359.5 144,359.5 M0,383.5 144,383.5 M0,407.5 144,407.5 M0,431.5 144,431.5 M0,455.5 144,455.5 M0,479.5 144,479.5" stroke="#0000ff15" fill="none" /><path d="M0,13 144,13 M0,37 144,37 M0,61 144,61 M0,85 144,85 M0,109 144,109 M0,133 144,133 M0,157 144,157 M0,181 144,181 M0,205 144,205 M0,229 144,229 M0,253 144,253 M0,277 144,277 M0,301 144,301 M0,325 144,325 M 0,349 144,349 M0,373 144,373 M0,397 144,397 M0,421 144,421 M0,445 144,445 M0,469 144,469 M0,480 144,0" stroke="#0000ff11" fill="none" />
</svg>