<svg version="1.1" width="140" height="480" xmlns="http://www.w3.org/2000/svg" >
	<path d="M0,16 140,16 M0,29 140,29 M0,46 140,46 M0,59 140,59 M0,76 140,76 M0,89 140,89 M0,106 140,106 M0,119 140,119 M0,136 140,136 M0,149 140,149 M0,166 140,166 M0,179 140,179 M0,196 140,196 M0,209 140,209 M0,226 140,226 M0,239 140,239 M0,256 140,256 M0,269 140,269 M0,286 140,286 M0,299 140,299 M0,316 140,316 M0,329 140,329 M0,346 140,346 M0,359 140,359 M0,376 140,376 M0,389 140,389 M0,406 140,406 M0,419 140,419 M0,436 140,436 M0,449 140,449 M0,466 140,466 M0,479 140,479 M0,480 140,0" stroke="#0000ff15" fill="none" />
</svg>