<svg version="1.1" width="830" height="75" xmlns="http://www.w3.org/2000/svg" >
	<defs>
		<linearGradient id="Area">
			<stop offset="0%" stop-color="#f5f5f599" />
			<stop offset="4%" stop-color="#fefefe" stop-opacity="0.5" />
			<stop offset="96%" stop-color="#fefefe" stop-opacity="0.5" />
			<stop offset="100%" stop-color="#f5f5f595" />
		</linearGradient>
		<linearGradient id="frontAngle" x1="1" x2="0" y1="0" y2="0.9">
			<stop offset="0%" stop-color="#000000" stop-opacity="0.25" />
			<stop offset="50.5%" stop-color="#ffffff" stop-opacity="0" />
		</linearGradient>
		<linearGradient id="backAngle" x1="1" x2="0" y1="0" y2="1">
			<stop offset="0%" stop-color="#fefefe" />
			<stop offset="25%" stop-color="dimgray" />
		</linearGradient>
	</defs>
	<path d="M 700 -1 C 750 -1, 800 -1, 822 8 C 830 25, 830 60, 830 77 L 830 -1 Z" stroke="none" fill="url(#backAngle)" />
	<path d="M0,0 830,0 830,75 0,75 Z" stroke="none" fill="url(#Area)" />
	<path d="M 700 -1 C 750 -1, 800 -1, 822 8 C 830 25, 830 60, 830 77 Z" stroke="none" fill="url(#frontAngle)" />
	<path d="M 700 -1 C 750 -1, 800 -1, 822 8 C 830 25, 829.5 60, 829.5 77 M829.5,63 829.5,77" stroke="#ffffff" fill="none" />
</svg>